#!OML:ASF I:\Actors\actors\Patient Classification 2\Patient 1\Session 1\actor1.ASF
:FULLY-SPECIFIED
:DEGREES
126
root -0.647699 18.7275 5.55045 4.15722 -4.52731 -2.88342
lowerback 3.68746 0.840687 -2.77677
upperback -2.15287 0.882434 -2.1121
thorax -4.30219 0.485443 -0.68994
lowerneck -5.01407 -4.56484 -4.38282
upperneck 12.4855 -7.908 15.8678
head 5.38137 -3.17324 5.20448
rclavicle 4.79568e-015 -1.11319e-014
rhumerus -58.1274 8.98748 -92.1464
rradius 49.7333
rwrist 10.9012
rhand -5.9249 -32.3357
rfingers 7.12502
rthumb 19.9046 -61.3364
lclavicle 4.79568e-015 -1.11319e-014
lhumerus -3.05556 10.101 83.961
lradius 128.97
lwrist 104.909
lhand -30.0719 -27.9671
lfingers 7.12502
lthumb -3.38686 1.98575
rfemur 0 0 0
rtibia 0
rfoot 0 0
rtoes 0
lfemur -6.48709 -6.6202 -11.5189
ltibia 21.8095
lfoot -25.2911 18.0859
ltoes -54.1443
127
root -0.64305 18.7282 5.55198 4.2144 -4.57026 -2.94647
lowerback 3.82461 0.834113 -2.67734
upperback -2.15955 0.870506 -2.17329
thorax -4.3843 0.4762 -0.810494
lowerneck -5.16037 -4.55223 -4.43292
upperneck 12.583 -7.9114 15.948
head 5.44278 -3.1618 5.237
rclavicle 1.32689e-014 2.06736e-014
rhumerus -58.6243 9.3248 -92.569
rradius 50.0988
rwrist 10.5265
rhand -5.89694 -32.6555
rfingers 7.12502
rthumb 19.9314 -61.6534
lclavicle 1.32689e-014 2.06736e-014
lhumerus -3.25065 9.81911 84.0351
lradius 129.705
lwrist 104.925
lhand -30.2284 -28.1361
lfingers 7.12502
lthumb -3.538 1.81428
rfemur 0 0 0
rtibia 0
rfoot 0 0
rtoes 0
lfemur -6.47494 -6.57196 -11.4551
ltibia 21.6926
lfoot -25.2141 18.0826
ltoes -54.0765
128
root -0.63967 18.7284 5.55349 4.27337 -4.58016 -3.03009
lowerback 3.95513 0.825845 -2.5817
upperback -2.15694 0.858372 -2.20016
thorax -4.4536 0.467305 -0.893168
lowerneck -5.28925 -4.56771 -4.4435
upperneck 12.6541 -7.92979 15.8655
head 5.48649 -3.16708 5.20858
rclavicle 4.47266e-015 -6.36111e-015
rhumerus -59.0471 9.83341 -93.0721
rradius 50.3387
rwrist 10.0869
rhand -5.96186 -33.0387
rfingers 7.12502
rthumb 19.869 -62.0431
lclavicle 4.47266e-015 -6.36111e-015
lhumerus -3.4859 9.58285 84.1079
lradius 130.15
lwrist 104.993
lhand -30.1964 -28.4052
lfingers 7.12502
lthumb -3.50717 1.54571
rfemur 0 0 0
rtibia 0
rfoot 0 0
rtoes 0
lfemur -6.53011 -6.51943 -11.3585
ltibia 21.6916
lfoot -25.139 18.0619
ltoes -54.061
129
root -0.637742 18.7287 5.55529 4.32433 -4.54912 -3.09949
lowerback 4.07496 0.828494 -2.52394
upperback -2.16771 0.859278 -2.21566
thorax -4.5317 0.466234 -0.943951
lowerneck -5.27449 -4.59166 -4.56207
upperneck 12.6162 -7.95625 15.9388
head 5.48243 -3.18375 5.25049
rclavicle 2.48481e-016 -3.18055e-015
rhumerus -59.5126 10.4525 -93.6323
rradius 50.5195
rwrist 9.83342
rhand -6.20207 -33.1875
rfingers 7.12502
rthumb 19.6381 -62.2156
lclavicle 2.48481e-016 -3.18055e-015
lhumerus -3.71943 9.3668 84.1838
lradius 130.368
lwrist 105.062
lhand -30.3007 -28.7282
lfingers 7.12502
lthumb -3.6078 1.22106
rfemur 0 0 0
rtibia 0
rfoot 0 0
rtoes 0
lfemur -6.63211 -6.38973 -11.261
ltibia 21.7654
lfoot -25.0141 17.9286
ltoes -54.108
130
root -0.635709 18.73 5.5577 4.3837 -4.47416 -3.18251
lowerback 4.16155 0.847485 -2.42682
upperback -2.17715 0.88536 -2.24616
thorax -4.58869 0.476058 -1.03375
lowerneck -5.2902 -4.6462 -4.76996
upperneck 12.5847 -8.03974 16.167
head 5.50215 -3.22163 5.35334
rclavicle 2.11706e-014 -1.43125e-014
rhumerus -59.9624 11.1339 -94.2551
rradius 50.7008
rwrist 10.1081
rhand -6.58407 -33.3153
rfingers 7.12502
rthumb 19.2708 -62.3805
lclavicle 2.11706e-014 -1.43125e-014
lhumerus -3.80829 9.15453 84.3112
lradius 130.376
lwrist 105.073
lhand -30.5796 -28.8901
lfingers 7.12502
lthumb -3.87713 1.05433
rfemur 0 0 0
rtibia 0
rfoot 0 0
rtoes 0
lfemur -6.75467 -6.31584 -11.1457
ltibia 21.8461
lfoot -24.954 17.7797
ltoes -54.1402
131
root -0.633569 18.732 5.55974 4.44819 -4.38269 -3.27435
lowerback 4.19757 0.873212 -2.30076
upperback -2.16052 0.924331 -2.2985
thorax -4.58881 0.49066 -1.16211
lowerneck -5.44251 -4.73393 -4.95709
upperneck 12.6655 -8.18698 16.3935
head 5.58786 -3.27817 5.44559
rclavicle 6.55989e-015 -4.77083e-015
rhumerus -60.2288 11.9177 -94.9111
rradius 50.8053
rwrist 11.1431
rhand -7.09595 -33.2395
rfingers 7.12502
rthumb 18.7785 -62.3531
lclavicle 6.55989e-015 -4.77083e-015
lhumerus -3.79385 8.98809 84.4201
lradius 130.216
lwrist 104.995
lhand -30.9311 -28.8576
lfingers 7.12502
lthumb -4.21664 1.08039
rfemur 0 0 0
rtibia 0
rfoot 0 0
rtoes 0
lfemur -6.87852 -6.37847 -11.0297
ltibia 21.9091
lfoot -24.9262 17.7548
ltoes -54.1338
132
root -0.638875 18.7335 5.56354 4.45729 -4.24568 -3.33065
lowerback 4.20475 0.886951 -2.33189
upperback -2.10719 0.940718 -2.33326
thorax -4.53733 0.498797 -1.18122
lowerneck -5.62693 -4.79537 -5.07865
upperneck 12.7886 -8.30853 16.606
head 5.6871 -3.31618 5.52414
rclavicle -5.66536e-015 -1.11319e-014
rhumerus -60.2264 12.7624 -95.5009
rradius 50.8072
rwrist 12.8691
rhand -7.4343 -32.9908
rfingers 7.12502
rthumb 18.4531 -62.1355
lclavicle -5.66536e-015 -1.11319e-014
lhumerus -3.79209 8.91202 84.4926
lradius 129.94
lwrist 104.819
lhand -31.3189 -28.8384
lfingers 7.12502
lthumb -4.59106 1.09187
rfemur 0 0 0
rtibia 0
rfoot 0 0
rtoes 0
lfemur -6.93789 -6.39067 -10.9251
ltibia 21.9608
lfoot -24.816 17.7067
ltoes -54.2144
133
root -0.651584 18.7335 5.56996 4.38754 -4.031 -3.36807
lowerback 4.20088 0.87254 -2.55135
upperback -1.99766 0.912643 -2.31472
thorax -4.42532 0.490701 -1.03495
lowerneck -5.82898 -4.83776 -5.06371
upperneck 12.874 -8.39451 16.6987
head 5.76373 -3.33799 5.54185
rclavicle -9.29318e-015 3.02153e-014
rhumerus -59.9388 13.7733 -96.0224
rradius 50.7788
rwrist 14.9422
rhand -6.75964 -33.3058
rfingers 7.12502
rthumb 19.102 -62.3878
lclavicle -9.29318e-015 3.02153e-014
lhumerus -3.79462 8.91187 84.5525
lradius 129.566
lwrist 104.714
lhand -31.6641 -28.9178
lfingers 7.12502
lthumb -4.92437 1.00498
rfemur 0 0 0
rtibia 0
rfoot 0 0
rtoes 0
lfemur -6.90529 -6.21885 -10.7967
ltibia 21.9979
lfoot -24.6776 17.424
ltoes -54.4067
134
root -0.658571 18.7326 5.57226 4.29102 -3.85382 -3.45951
lowerback 4.2417 0.875557 -2.66061
upperback -1.85475 0.914651 -2.27847
thorax -4.30224 0.494058 -0.934826
lowerneck -6.05883 -4.91115 -5.08363
upperneck 12.9033 -8.51601 16.8198
head 5.83529 -3.37799 5.57042
rclavicle -4.77083e-015 0
rhumerus -59.402 15.0129 -96.4675
rradius 50.9431
rwrist 16.6309
rhand -9.37525 -33.0641
rfingers 7.12502
rthumb 16.5852 -62.3754
lclavicle -4.77083e-015 0
lhumerus -3.72954 8.93287 84.6168
lradius 129.138
lwrist 104.766
lhand -31.9171 -29.0012
lfingers 7.12502
lthumb -5.16868 0.915717
rfemur 0 0 0
rtibia 0
rfoot 0 0
rtoes 0
lfemur -6.83774 -6.05722 -10.631
ltibia 22.0029
lfoot -24.5725 17.1445
ltoes -54.5106
135
root -0.659484 18.7324 5.5697 4.26755 -3.78166 -3.5005
lowerback 4.25895 0.912385 -2.73273
upperback -1.74851 0.962295 -2.27919
thorax -4.20308 0.518568 -0.897561
lowerneck -6.21084 -4.99638 -5.20309
upperneck 12.8749 -8.64779 17.0256
head 5.88446 -3.42899 5.64396
rclavicle 1.72943e-014 1.11319e-014
rhumerus -58.6963 16.3037 -96.7964
rradius 51.5562
rwrist 17.6523
rhand -10.5055 -33.2462
rfingers 7.12502
rthumb 15.4968 -62.6451
lclavicle 1.72943e-014 1.11319e-014
lhumerus -3.59417 9.00065 84.6923
lradius 128.706
lwrist 104.912
lhand -32.0995 -29.0981
lfingers 7.12502
lthumb -5.34482 0.81447
rfemur 0 0 0
rtibia 0
rfoot 0 0
rtoes 0
lfemur -6.83895 -6.02221 -10.5638
ltibia 21.9926
lfoot -24.5091 17.0905
ltoes -54.5056
136
root -0.659973 18.7335 5.56705 4.31996 -3.79305 -3.39213
lowerback 4.19319 0.955936 -2.98
upperback -1.69733 1.00883 -2.32018
thorax -4.11708 0.54678 -0.803171
lowerneck -6.29793 -5.05487 -5.27003
upperneck 12.8766 -8.74463 17.175
head 5.92259 -3.46566 5.69465
rclavicle 9.44227e-015 -1.59028e-015
rhumerus -57.8867 17.5751 -96.9965
rradius 52.774
rwrist 17.8037
rhand -11.1088 -32.9509
rfingers 7.12502
rthumb 14.9157 -62.3939
lclavicle 9.44227e-015 -1.59028e-015
lhumerus -3.51023 9.13133 84.7078
lradius 128.287
lwrist 104.978
lhand -32.2141 -29.0909
lfingers 7.12502
lthumb -5.45544 0.818836
rfemur 0 0 0
rtibia 0
rfoot 0 0
rtoes 0
lfemur -6.8997 -6.06871 -10.685
ltibia 21.9924
lfoot -24.5211 17.1467
ltoes -54.4474
